<svg xmlns="http://www.w3.org/2000/svg" width="20" height="17" fill="none" viewBox="0 0 20 17">
    <path fill="#540CFA" d="M19.634 16.671c-.985-1.176-.746-2.776-.512-3.64.22-.54.345-1.114.345-1.715 0-1.072-.382-2.068-1.034-2.903-.635 3.898-4.547 6.917-9.304 6.991 1.092.76 2.494 1.217 4.023 1.217a7.222 7.222 0 0 0 3.073-.673C17.62 16.873 19.359 17 19.359 17c.751 0 .275-.329.275-.329z"/>
    <path fill="#540CFA" d="M17.72 7.304C17.72 3.277 13.785 0 8.952 0 4.119 0 .187 3.277.187 7.304c0 .786.157 1.574.469 2.338.362 1.317.72 3.68-.656 5.507.467-.05 2.566-.328 4.262-1.45l.193-.128.21.098a10.15 10.15 0 0 0 4.288.938c4.833 0 8.766-3.277 8.766-7.303z"/>
</svg>
