<svg xmlns="http://www.w3.org/2000/svg" width="24" height="24" fill="none" viewBox="0 0 24 24">
    <path fill="#fff" fill-rule="evenodd" d="M14.27 4.865a4.865 4.865 0 1 0 9.73 0 4.865 4.865 0 0 0-9.73 0zm-1.938-.324c.02-.445.084-.88.187-1.298H3.892A3.892 3.892 0 0 0 0 7.135v12.973A3.892 3.892 0 0 0 3.892 24h12.973a3.892 3.892 0 0 0 3.892-3.892v-8.627a6.807 6.807 0 0 1-1.298.187v8.44a2.595 2.595 0 0 1-2.594 2.595H3.892a2.595 2.595 0 0 1-2.595-2.595V7.135a2.595 2.595 0 0 1 2.595-2.594h8.44z" clip-rule="evenodd"/>
</svg>
