<svg xmlns="http://www.w3.org/2000/svg" width="18" height="14" fill="none" viewBox="0 0 18 14">
    <path fill="#fff" d="M18 1.657a7.653 7.653 0 0 1-2.121.557A3.58 3.58 0 0 0 17.502.258a7.6 7.6 0 0 1-2.345.858A3.763 3.763 0 0 0 12.46 0c-2.038 0-3.693 1.582-3.693 3.534 0 .277.033.547.097.805-3.07-.147-5.79-1.554-7.612-3.692a3.398 3.398 0 0 0-.5 1.777c0 1.225.652 2.307 1.643 2.94a3.796 3.796 0 0 1-1.673-.441v.045c0 1.712 1.273 3.14 2.962 3.465a3.876 3.876 0 0 1-1.668.06c.47 1.405 1.835 2.426 3.45 2.456A7.632 7.632 0 0 1 .88 12.461c-.295 0-.589-.017-.881-.05A10.8 10.8 0 0 0 5.66 14c6.793 0 10.507-5.386 10.507-10.057 0-.152 0-.305-.011-.457a7.365 7.365 0 0 0 1.843-1.829H18z" opacity=".3"/>
</svg>
